<?xml version="1.0" encoding="UTF-8"?>
<svg id="Capa_1" data-name="Capa 1" xmlns="http://www.w3.org/2000/svg" viewBox="0 0 1012.73 979.01">
  <defs>
    <style>
      .cls-1 {
        fill: #75e561;
      }
    </style>
  </defs>
  <path class="cls-1" d="M666.87,783.41c-24.16-2.57-29.94,9.37-49.73,17.82l1.06,6.47,43.13,63.41c5.47,2.9,29.12-16.78,33.2-22.34,17.29-23.6,2.04-62.21-27.66-65.36ZM666.87,783.41c-24.16-2.57-29.94,9.37-49.73,17.82l1.06,6.47,43.13,63.41c5.47,2.9,29.12-16.78,33.2-22.34,17.29-23.6,2.04-62.21-27.66-65.36ZM666.87,783.41c-24.16-2.57-29.94,9.37-49.73,17.82l1.06,6.47,43.13,63.41c5.47,2.9,29.12-16.78,33.2-22.34,17.29-23.6,2.04-62.21-27.66-65.36ZM666.87,783.41c-24.16-2.57-29.94,9.37-49.73,17.82l1.06,6.47,43.13,63.41c5.47,2.9,29.12-16.78,33.2-22.34,17.29-23.6,2.04-62.21-27.66-65.36ZM666.87,783.41c-24.16-2.57-29.94,9.37-49.73,17.82l1.06,6.47,43.13,63.41c5.47,2.9,29.12-16.78,33.2-22.34,17.29-23.6,2.04-62.21-27.66-65.36ZM666.87,783.41c-24.16-2.57-29.94,9.37-49.73,17.82l1.06,6.47,43.13,63.41c5.47,2.9,29.12-16.78,33.2-22.34,17.29-23.6,2.04-62.21-27.66-65.36ZM666.87,783.41c-24.16-2.57-29.94,9.37-49.73,17.82l1.06,6.47,43.13,63.41c5.47,2.9,29.12-16.78,33.2-22.34,17.29-23.6,2.04-62.21-27.66-65.36ZM666.87,783.41c-24.16-2.57-29.94,9.37-49.73,17.82l1.06,6.47,43.13,63.41c5.47,2.9,29.12-16.78,33.2-22.34,17.29-23.6,2.04-62.21-27.66-65.36ZM666.87,783.41c-24.16-2.57-29.94,9.37-49.73,17.82l1.06,6.47,43.13,63.41c5.47,2.9,29.12-16.78,33.2-22.34,17.29-23.6,2.04-62.21-27.66-65.36ZM666.87,783.41c-24.16-2.57-29.94,9.37-49.73,17.82l1.06,6.47,43.13,63.41c5.47,2.9,29.12-16.78,33.2-22.34,17.29-23.6,2.04-62.21-27.66-65.36ZM666.87,783.41c-24.16-2.57-29.94,9.37-49.73,17.82l1.06,6.47,43.13,63.41c5.47,2.9,29.12-16.78,33.2-22.34,17.29-23.6,2.04-62.21-27.66-65.36ZM666.87,783.41c-24.16-2.57-29.94,9.37-49.73,17.82l1.06,6.47,43.13,63.41c5.47,2.9,29.12-16.78,33.2-22.34,17.29-23.6,2.04-62.21-27.66-65.36ZM666.87,783.41c-24.16-2.57-29.94,9.37-49.73,17.82l1.06,6.47,43.13,63.41c5.47,2.9,29.12-16.78,33.2-22.34,17.29-23.6,2.04-62.21-27.66-65.36ZM666.87,783.41c-24.16-2.57-29.94,9.37-49.73,17.82l1.06,6.47,43.13,63.41c5.47,2.9,29.12-16.78,33.2-22.34,17.29-23.6,2.04-62.21-27.66-65.36ZM666.87,783.41c-24.16-2.57-29.94,9.37-49.73,17.82l1.06,6.47,43.13,63.41c5.47,2.9,29.12-16.78,33.2-22.34,17.29-23.6,2.04-62.21-27.66-65.36ZM666.87,783.41c-24.16-2.57-29.94,9.37-49.73,17.82l1.06,6.47,43.13,63.41c5.47,2.9,29.12-16.78,33.2-22.34,17.29-23.6,2.04-62.21-27.66-65.36ZM666.87,783.41c-24.16-2.57-29.94,9.37-49.73,17.82l1.06,6.47,43.13,63.41c5.47,2.9,29.12-16.78,33.2-22.34,17.29-23.6,2.04-62.21-27.66-65.36ZM666.87,783.41c-24.16-2.57-29.94,9.37-49.73,17.82l1.06,6.47,43.13,63.41c5.47,2.9,29.12-16.78,33.2-22.34,17.29-23.6,2.04-62.21-27.66-65.36ZM666.87,783.41c-24.16-2.57-29.94,9.37-49.73,17.82l1.06,6.47,43.13,63.41c5.47,2.9,29.12-16.78,33.2-22.34,17.29-23.6,2.04-62.21-27.66-65.36ZM666.87,783.41c-24.16-2.57-29.94,9.37-49.73,17.82l1.06,6.47,43.13,63.41c5.47,2.9,29.12-16.78,33.2-22.34,17.29-23.6,2.04-62.21-27.66-65.36ZM666.87,783.41c-24.16-2.57-29.94,9.37-49.73,17.82l1.06,6.47,43.13,63.41c5.47,2.9,29.12-16.78,33.2-22.34,17.29-23.6,2.04-62.21-27.66-65.36ZM666.87,783.41c-24.16-2.57-29.94,9.37-49.73,17.82l1.06,6.47,43.13,63.41c5.47,2.9,29.12-16.78,33.2-22.34,17.29-23.6,2.04-62.21-27.66-65.36ZM666.87,783.41c-24.16-2.57-29.94,9.37-49.73,17.82l1.06,6.47,43.13,63.41c5.47,2.9,29.12-16.78,33.2-22.34,17.29-23.6,2.04-62.21-27.66-65.36ZM666.87,783.41c-24.16-2.57-29.94,9.37-49.73,17.82l1.06,6.47,43.13,63.41c5.47,2.9,29.12-16.78,33.2-22.34,17.29-23.6,2.04-62.21-27.66-65.36ZM666.87,783.41c-24.16-2.57-29.94,9.37-49.73,17.82l1.06,6.47,43.13,63.41c5.47,2.9,29.12-16.78,33.2-22.34,17.29-23.6,2.04-62.21-27.66-65.36ZM666.87,783.41c-24.16-2.57-29.94,9.37-49.73,17.82l1.06,6.47,43.13,63.41c5.47,2.9,29.12-16.78,33.2-22.34,17.29-23.6,2.04-62.21-27.66-65.36ZM666.87,783.41c-24.16-2.57-29.94,9.37-49.73,17.82l1.06,6.47,43.13,63.41c5.47,2.9,29.12-16.78,33.2-22.34,17.29-23.6,2.04-62.21-27.66-65.36ZM666.87,783.41c-24.16-2.57-29.94,9.37-49.73,17.82l1.06,6.47,43.13,63.41c5.47,2.9,29.12-16.78,33.2-22.34,17.29-23.6,2.04-62.21-27.66-65.36ZM666.87,783.41c-24.16-2.57-29.94,9.37-49.73,17.82l1.06,6.47,43.13,63.41c5.47,2.9,29.12-16.78,33.2-22.34,17.29-23.6,2.04-62.21-27.66-65.36ZM666.87,783.41c-24.16-2.57-29.94,9.37-49.73,17.82l1.06,6.47,43.13,63.41c5.47,2.9,29.12-16.78,33.2-22.34,17.29-23.6,2.04-62.21-27.66-65.36ZM666.87,783.41c-24.16-2.57-29.94,9.37-49.73,17.82l1.06,6.47,43.13,63.41c5.47,2.9,29.12-16.78,33.2-22.34,17.29-23.6,2.04-62.21-27.66-65.36Z"/>
  <path class="cls-1" d="M988.27,347.36c-13.59-20.19-32.36-37.45-54.45-50.38,1.17-26.09,1.73-60.3-22.01-83.33l-4.63-4.48-5.7-3.06c-45.57-24.6-91.78-50.44-136.43-75.44-65.25-36.48-132.69-74.22-200.42-109.28-1.77-.91-3.72-2.02-5.78-3.17-16.93-9.49-45.26-25.35-75.77-14.65l-3.63,1.26L122.22,201.11s-.04,0-.07.02l-12.57,6.91c-9.57,6.54-17.26,15.2-22.18,25.18l-4.81,13.94-1.46,4.23.07,353.6c-.62.55-1.26,1.11-1.91,1.64-6.54,5.65-13.92,12.06-21.08,19.72C18.95,668.45-1.69,716.68.11,762.13c1.51,37.72,18.28,72.29,48.54,99.98,36.01,32.96,84.48,49.49,144.7,49.49,27.73,0,57.98-3.5,90.62-10.53,22.12-4.77,45.32-11.15,69.5-19.04l19.28,8.33c14.38,6.23,28.88,14.43,44.21,23.12,23.58,13.36,47.98,27.19,76.17,36.28l5.3,1.71,5.54.4c1.31.09,2.64.16,3.95.16,13.03,0,25.95-4.68,36.68-12.43.82,1.31,1.66,2.59,2.57,3.88,10.39,14.47,25.29,23.76,41.93,26.15,15.43,2.24,28.94-1.66,40.05-7.18.38.22,12.52-7.69,12.92-7.47l15.78,24.05,24.8-19.88c6.27-5.01,14.18-9.86,22.58-14.98,24.89-15.2,58.97-36.01,72.89-79.63,5.65-17.77,6.76-33.11,5.85-46.87l114.27-71.34c21.9-13.59,35.46-44.79,35.46-65.98v-109.39c36.21-31.83,65.34-68.86,75.24-111.59,9.06-38.98,1.71-78.74-20.68-111.99ZM524.05,893.09c-1.22,5.72-10.53,12.81-16.67,12.37-40.89-13.16-76.59-40.71-116.18-57.82l40.98-19.02,56.43,27.9v-54.3l35.44-18.84v109.7ZM887.17,680.33c0,6.8-6.91,22.41-13.45,26.44l-140.55,87.72c4.48,20.72,7.27,34.99.62,55.89-12.28,38.5-51.31,49.27-80.23,72.43-6.12-3.52-10.84-19.9-17.69-19.84-8.73.09-34.8,35.75-50.89,13.34-15.69-21.87,18.99-34.11,32.2-43.28l-15.65-24.42c-7.34-3.88-33.44,30.25-50.84,15.6-26.66-22.45,30.7-43.31,30.72-48.67l-15.29-23.23c48.18-30.05,89.63-70.1,146.25-27.59l136.7-83.73.42-75.55,37.68-23.74v98.62ZM963.63,448.82c-15.45,66.53-103.43,122.78-159.11,155.45-103.23,60.53-225.3,126.42-332.82,178.81-98.34,47.94-297.89,130.47-391.63,44.7-56.78-51.93-33.75-120.43,12.17-169.65,11.24-12.03,24.93-21.45,35.5-33.18l-.07-305.84v-59.91l3.41-9.86,69.97-38.43L498.48,47.5c12.97-4.57,32.25,8.75,44.77,15.23,113.36,58.66,223.8,123.76,336.16,184.35,15.03,14.56,4.34,58.95,8.11,79.41,51.13,18.48,89.25,65.73,76.11,122.34Z"/>
  <path class="cls-1" d="M931.49,427.59c-1.06,64.8-118.99,130.76-169.06,158.95-85.86,48.31-177.3,97.49-264.91,142.62-89.45,46.05-260.39,127.28-359.26,91.35-76.75-27.9-65.36-96.03-13.83-143.48,4.99-.91,3.06,2.19,3.28,5.5.6,8.98-2.11,18.13,6.74,24.31,51.04,21.21,124.93,93.5,179.98,49.58,9.11-7.25,23.63-29.34,23.63-40.62v-165.11c13.81,11.3,30.56,65.27,47.72,66.44,9.8.66,20.81-8.27,20.26-18.44-.27-5.05-5.41-13.54-7.82-18.44-18.55-37.7-44.41-74.16-62.74-112.3-8.89-12.57-17.69-12.21-29.5-3.68-9.88,7.11-48.98,48.96-57.6,59.79-7.71,9.69-14.54,19.59-4.61,31.27,20.21,23.76,43.9-24.58,58.86-33.47v187.27c0,.89-4.52,10.46-5.63,12.1-7.73,11.35-21.59,15.67-34.84,12.88-10.22-2.13-50.95-25.64-62.85-32.34-12.17-6.87-24.27-14.1-36.15-21.45v-388.95l325.46,176.19v238.25c7.51-7.65,33.42-13.08,35.39-23.31l.4-217.9,150.2-77.92v157.35l35.08-21.39.71-157.78,139.11-73.49v210.54l35.44-32.14v-103.06c24.09,5.87,46.96,35.9,46.54,60.86Z"/>
  <path class="cls-1" d="M654.68,355.62c-43.35,19.92-83.6,46.36-126.15,67.68-6.72,3.35-17.89,10.75-24.96,9.55-99.2-54.96-200.84-105.76-299.84-161.03-4.76-2.66-11.35-5.98-15.6-8.73-2.15-1.37-3.97.24-2.84-4.92l149.07-79.34,320.32,176.79Z"/>
  <polygon class="cls-1" points="827.37 262.54 691.74 333.13 374.12 161.15 371.29 156.23 500.32 86.97 509.14 85.6 823.71 256.27 827.37 262.54"/>
</svg>