<?xml version="1.0" encoding="UTF-8"?>
<svg id="Capa_1" data-name="Capa 1" xmlns="http://www.w3.org/2000/svg" viewBox="0 0 1080 1080">
  <defs>
    <style>
      .cls-1 {
        fill: #75e561;
      }
    </style>
  </defs>
  <g>
    <path class="cls-1" d="M653.89,682c-17.14-1.82-21.25,6.65-35.29,12.64l.75,4.59,30.6,44.99c3.88,2.06,20.67-11.91,23.56-15.85,12.27-16.75,1.45-44.14-19.63-46.38ZM653.89,682c-17.14-1.82-21.25,6.65-35.29,12.64l.75,4.59,30.6,44.99c3.88,2.06,20.67-11.91,23.56-15.85,12.27-16.75,1.45-44.14-19.63-46.38ZM653.89,682c-17.14-1.82-21.25,6.65-35.29,12.64l.75,4.59,30.6,44.99c3.88,2.06,20.67-11.91,23.56-15.85,12.27-16.75,1.45-44.14-19.63-46.38ZM653.89,682c-17.14-1.82-21.25,6.65-35.29,12.64l.75,4.59,30.6,44.99c3.88,2.06,20.67-11.91,23.56-15.85,12.27-16.75,1.45-44.14-19.63-46.38ZM653.89,682c-17.14-1.82-21.25,6.65-35.29,12.64l.75,4.59,30.6,44.99c3.88,2.06,20.67-11.91,23.56-15.85,12.27-16.75,1.45-44.14-19.63-46.38ZM653.89,682c-17.14-1.82-21.25,6.65-35.29,12.64l.75,4.59,30.6,44.99c3.88,2.06,20.67-11.91,23.56-15.85,12.27-16.75,1.45-44.14-19.63-46.38ZM653.89,682c-17.14-1.82-21.25,6.65-35.29,12.64l.75,4.59,30.6,44.99c3.88,2.06,20.67-11.91,23.56-15.85,12.27-16.75,1.45-44.14-19.63-46.38ZM653.89,682c-17.14-1.82-21.25,6.65-35.29,12.64l.75,4.59,30.6,44.99c3.88,2.06,20.67-11.91,23.56-15.85,12.27-16.75,1.45-44.14-19.63-46.38ZM653.89,682c-17.14-1.82-21.25,6.65-35.29,12.64l.75,4.59,30.6,44.99c3.88,2.06,20.67-11.91,23.56-15.85,12.27-16.75,1.45-44.14-19.63-46.38ZM653.89,682c-17.14-1.82-21.25,6.65-35.29,12.64l.75,4.59,30.6,44.99c3.88,2.06,20.67-11.91,23.56-15.85,12.27-16.75,1.45-44.14-19.63-46.38ZM653.89,682c-17.14-1.82-21.25,6.65-35.29,12.64l.75,4.59,30.6,44.99c3.88,2.06,20.67-11.91,23.56-15.85,12.27-16.75,1.45-44.14-19.63-46.38ZM653.89,682c-17.14-1.82-21.25,6.65-35.29,12.64l.75,4.59,30.6,44.99c3.88,2.06,20.67-11.91,23.56-15.85,12.27-16.75,1.45-44.14-19.63-46.38ZM653.89,682c-17.14-1.82-21.25,6.65-35.29,12.64l.75,4.59,30.6,44.99c3.88,2.06,20.67-11.91,23.56-15.85,12.27-16.75,1.45-44.14-19.63-46.38ZM653.89,682c-17.14-1.82-21.25,6.65-35.29,12.64l.75,4.59,30.6,44.99c3.88,2.06,20.67-11.91,23.56-15.85,12.27-16.75,1.45-44.14-19.63-46.38ZM653.89,682c-17.14-1.82-21.25,6.65-35.29,12.64l.75,4.59,30.6,44.99c3.88,2.06,20.67-11.91,23.56-15.85,12.27-16.75,1.45-44.14-19.63-46.38ZM653.89,682c-17.14-1.82-21.25,6.65-35.29,12.64l.75,4.59,30.6,44.99c3.88,2.06,20.67-11.91,23.56-15.85,12.27-16.75,1.45-44.14-19.63-46.38ZM653.89,682c-17.14-1.82-21.25,6.65-35.29,12.64l.75,4.59,30.6,44.99c3.88,2.06,20.67-11.91,23.56-15.85,12.27-16.75,1.45-44.14-19.63-46.38ZM653.89,682c-17.14-1.82-21.25,6.65-35.29,12.64l.75,4.59,30.6,44.99c3.88,2.06,20.67-11.91,23.56-15.85,12.27-16.75,1.45-44.14-19.63-46.38ZM653.89,682c-17.14-1.82-21.25,6.65-35.29,12.64l.75,4.59,30.6,44.99c3.88,2.06,20.67-11.91,23.56-15.85,12.27-16.75,1.45-44.14-19.63-46.38ZM653.89,682c-17.14-1.82-21.25,6.65-35.29,12.64l.75,4.59,30.6,44.99c3.88,2.06,20.67-11.91,23.56-15.85,12.27-16.75,1.45-44.14-19.63-46.38ZM653.89,682c-17.14-1.82-21.25,6.65-35.29,12.64l.75,4.59,30.6,44.99c3.88,2.06,20.67-11.91,23.56-15.85,12.27-16.75,1.45-44.14-19.63-46.38ZM653.89,682c-17.14-1.82-21.25,6.65-35.29,12.64l.75,4.59,30.6,44.99c3.88,2.06,20.67-11.91,23.56-15.85,12.27-16.75,1.45-44.14-19.63-46.38ZM653.89,682c-17.14-1.82-21.25,6.65-35.29,12.64l.75,4.59,30.6,44.99c3.88,2.06,20.67-11.91,23.56-15.85,12.27-16.75,1.45-44.14-19.63-46.38ZM653.89,682c-17.14-1.82-21.25,6.65-35.29,12.64l.75,4.59,30.6,44.99c3.88,2.06,20.67-11.91,23.56-15.85,12.27-16.75,1.45-44.14-19.63-46.38ZM653.89,682c-17.14-1.82-21.25,6.65-35.29,12.64l.75,4.59,30.6,44.99c3.88,2.06,20.67-11.91,23.56-15.85,12.27-16.75,1.45-44.14-19.63-46.38ZM653.89,682c-17.14-1.82-21.25,6.65-35.29,12.64l.75,4.59,30.6,44.99c3.88,2.06,20.67-11.91,23.56-15.85,12.27-16.75,1.45-44.14-19.63-46.38ZM653.89,682c-17.14-1.82-21.25,6.65-35.29,12.64l.75,4.59,30.6,44.99c3.88,2.06,20.67-11.91,23.56-15.85,12.27-16.75,1.45-44.14-19.63-46.38ZM653.89,682c-17.14-1.82-21.25,6.65-35.29,12.64l.75,4.59,30.6,44.99c3.88,2.06,20.67-11.91,23.56-15.85,12.27-16.75,1.45-44.14-19.63-46.38ZM653.89,682c-17.14-1.82-21.25,6.65-35.29,12.64l.75,4.59,30.6,44.99c3.88,2.06,20.67-11.91,23.56-15.85,12.27-16.75,1.45-44.14-19.63-46.38ZM653.89,682c-17.14-1.82-21.25,6.65-35.29,12.64l.75,4.59,30.6,44.99c3.88,2.06,20.67-11.91,23.56-15.85,12.27-16.75,1.45-44.14-19.63-46.38ZM653.89,682c-17.14-1.82-21.25,6.65-35.29,12.64l.75,4.59,30.6,44.99c3.88,2.06,20.67-11.91,23.56-15.85,12.27-16.75,1.45-44.14-19.63-46.38Z"/>
    <path class="cls-1" d="M881.96,372.58c-9.64-14.33-22.96-26.58-38.64-35.75.83-18.51,1.23-42.79-15.62-59.13l-3.29-3.18-4.04-2.17c-32.33-17.46-65.12-35.79-96.81-53.53-46.3-25.89-94.16-52.67-142.22-77.55-1.26-.64-2.64-1.43-4.1-2.25-12.02-6.73-32.11-17.99-53.77-10.4l-2.58.9-253.48,139.28s-.03,0-.05.02l-8.92,4.91c-6.79,4.64-12.25,10.79-15.74,17.87l-3.41,9.89-1.04,3,.05,250.92c-.44.39-.9.79-1.35,1.16-4.64,4.01-9.88,8.56-14.96,14-27.87,29.86-42.51,64.09-41.24,96.34,1.07,26.77,12.97,51.3,34.44,70.94,25.56,23.39,59.95,35.12,102.68,35.12,19.67,0,41.14-2.48,64.31-7.47,15.7-3.38,32.16-7.91,49.32-13.51l13.68,5.91c10.21,4.42,20.49,10.24,31.37,16.4,16.73,9.48,34.05,19.3,54.05,25.74l3.76,1.21,3.93.28c.93.06,1.87.11,2.8.11,9.25,0,18.42-3.32,26.03-8.82.58.93,1.18,1.84,1.82,2.75,7.38,10.27,17.94,16.86,29.76,18.56,10.95,1.59,20.54-1.18,28.42-5.1.27.16,8.89-5.46,9.17-5.3l11.2,17.06,17.6-14.11c4.45-3.55,10.06-7,16.03-10.63,17.66-10.79,41.85-25.56,51.73-56.51,4.01-12.61,4.8-23.5,4.15-33.26l81.09-50.62c15.54-9.64,25.16-31.78,25.16-46.82v-77.63c25.7-22.58,46.36-48.86,53.39-79.18,6.43-27.66,1.21-55.88-14.67-79.47ZM552.55,759.84c-.87,4.06-7.47,9.09-11.83,8.78-29.02-9.34-54.35-28.89-82.44-41.03l29.08-13.49,40.04,19.8v-38.53l25.15-13.37v77.85ZM810.22,608.86c0,4.83-4.91,15.9-9.55,18.76l-99.74,62.25c3.18,14.7,5.16,24.83.44,39.66-8.71,27.32-36.41,34.96-56.93,51.39-4.34-2.5-7.69-14.12-12.55-14.08-6.2.06-24.69,25.37-36.11,9.47-11.13-15.52,13.48-24.2,22.85-30.71l-11.1-17.33c-5.21-2.75-23.73,21.47-36.08,11.07-18.92-15.93,21.78-30.73,21.8-34.54l-10.85-16.48c34.19-21.33,63.6-49.74,103.78-19.58l97-59.42.3-53.61,26.74-16.84v69.98ZM864.47,444.58c-10.96,47.21-73.4,87.13-112.9,110.31-73.26,42.95-159.88,89.7-236.17,126.88-69.78,34.02-211.38,92.58-277.91,31.72-40.29-36.85-23.95-85.46,8.63-120.39,7.97-8.54,17.69-15.22,25.19-23.54l-.05-217.03v-42.51l2.42-7,49.65-27.27,211.05-115.95c9.2-3.24,22.88,6.21,31.77,10.8,80.44,41.63,158.81,87.82,238.54,130.81,10.66,10.33,3.08,41.83,5.76,56.35,36.28,13.12,63.33,46.65,54.01,86.81Z"/>
    <path class="cls-1" d="M841.67,429.51c-.76,45.98-84.44,92.79-119.96,112.79-60.93,34.28-125.81,69.18-187.98,101.2-63.47,32.68-184.77,90.32-254.93,64.83-54.46-19.8-46.38-68.14-9.81-101.81,3.54-.64,2.17,1.56,2.33,3.9.42,6.37-1.49,12.86,4.78,17.25,36.22,15.05,88.65,66.35,127.72,35.18,6.46-5.14,16.76-20.82,16.76-28.83v-117.16c9.8,8.02,21.69,46.32,33.86,47.15,6.95.47,14.77-5.87,14.37-13.08-.19-3.59-3.84-9.61-5.55-13.08-13.16-26.75-31.52-52.62-44.52-79.69-6.31-8.92-12.55-8.67-20.93-2.61-7.01,5.05-34.76,34.74-40.87,42.43-5.47,6.87-10.32,13.9-3.27,22.19,14.34,16.86,31.15-17.44,41.77-23.75v132.89c0,.63-3.21,7.42-3.99,8.59-5.49,8.05-15.32,11.12-24.72,9.14-7.25-1.51-36.16-18.2-44.6-22.95-8.63-4.88-17.22-10-25.65-15.22v-276l230.95,125.03v169.06c5.33-5.43,23.72-9.28,25.12-16.54l.28-154.62,106.58-55.3v111.66l24.9-15.18.5-111.96,98.72-52.15v149.4l25.15-22.8v-73.13c17.09,4.17,33.32,25.48,33.03,43.19Z"/>
    <path class="cls-1" d="M645.24,378.45c-30.76,14.14-59.32,32.9-89.52,48.03-4.77,2.37-12.69,7.63-17.71,6.78-70.39-39-142.52-75.05-212.77-114.27-3.38-1.89-8.05-4.25-11.07-6.2-1.53-.98-2.81.17-2.01-3.49l105.78-56.3,227.3,125.45Z"/>
    <polygon class="cls-1" points="767.79 312.4 671.54 362.48 446.16 240.45 444.15 236.95 535.71 187.81 541.97 186.83 765.19 307.94 767.79 312.4"/>
  </g>
  <g>
    <path class="cls-1" d="M182.99,847.7v18.3h-30.92v85.04h-21.73v-85.04h-31.06v-18.3h83.7Z"/>
    <path class="cls-1" d="M272.03,866h-54.68v21.94h50.19v17.95h-50.19v26.57h57.2v18.58h-78.31v-103.33h75.78v18.3Z"/>
    <path class="cls-1" d="M301.25,858.49c8.32-8.5,18.91-12.76,31.76-12.76,17.2,0,29.78,5.7,37.73,17.11,4.39,6.4,6.75,12.83,7.07,19.28h-21.59c-1.37-4.95-3.14-8.69-5.29-11.22-3.85-4.49-9.55-6.73-17.1-6.73s-13.76,3.17-18.2,9.5c-4.44,6.33-6.66,15.29-6.66,26.88s2.34,20.27,7.03,26.04c4.69,5.77,10.64,8.66,17.86,8.66s13.05-2.48,16.94-7.43c2.15-2.66,3.93-6.66,5.35-11.99h21.45c-1.85,11.26-6.58,20.42-14.18,27.48-7.61,7.06-17.35,10.59-29.23,10.59-14.7,0-26.26-4.77-34.68-14.3-8.41-9.58-12.62-22.71-12.62-39.4,0-18.04,4.79-31.94,14.36-41.71Z"/>
    <path class="cls-1" d="M394.92,951.03v-103.33h21.45v39.4h40.17v-39.4h21.45v103.33h-21.45v-46.13h-40.17v46.13h-21.45Z"/>
    <path class="cls-1" d="M559.29,849.94c7.25,2.38,13.12,6.75,17.61,13.11,3.6,5.14,6.06,10.7,7.37,16.69,1.31,5.98,1.97,11.68,1.97,17.1,0,13.74-2.76,25.38-8.28,34.91-7.48,12.85-19.04,19.28-34.66,19.28h-44.55v-103.33h44.55c6.41.09,11.74.84,16,2.24ZM519.71,865.64v67.44h19.94c10.2,0,17.32-5.02,21.34-15.07,2.2-5.52,3.3-12.08,3.3-19.7,0-10.52-1.65-18.59-4.95-24.22-3.3-5.63-9.87-8.45-19.7-8.45h-19.94Z"/>
    <path class="cls-1" d="M678.84,866h-54.68v21.94h50.19v17.95h-50.19v26.57h57.2v18.58h-78.31v-103.33h75.78v18.3Z"/>
    <path class="cls-1" d="M767.56,906.31c-6.05,5.05-14.69,7.57-25.91,7.57h-21.52v37.16h-21.45v-103.33h44.37c10.23,0,18.38,2.66,24.46,7.99,6.08,5.33,9.12,13.58,9.12,24.75,0,12.2-3.03,20.82-9.07,25.87ZM751.08,869.08c-2.73-2.29-6.57-3.44-11.49-3.44h-19.46v30.43h19.46c4.93,0,8.76-1.24,11.49-3.72,2.73-2.48,4.1-6.4,4.1-11.78s-1.37-9.21-4.1-11.5Z"/>
    <path class="cls-1" d="M873.52,941.85c-7.81,8.04-19.09,12.06-33.86,12.06s-26.06-4.02-33.86-12.06c-10.47-9.86-15.7-24.07-15.7-42.62s5.23-33.13,15.7-42.62c7.8-8.04,19.09-12.06,33.86-12.06s26.05,4.02,33.86,12.06c10.42,9.49,15.63,23.7,15.63,42.62s-5.21,32.76-15.63,42.62ZM860.03,926.14c5.02-6.31,7.54-15.28,7.54-26.92s-2.51-20.55-7.54-26.88c-5.02-6.33-11.81-9.5-20.36-9.5s-15.38,3.15-20.47,9.46c-5.09,6.31-7.64,15.28-7.64,26.92s2.55,20.61,7.64,26.92c5.09,6.31,11.92,9.46,20.47,9.46s15.34-3.15,20.36-9.46Z"/>
    <path class="cls-1" d="M980.71,847.7v18.3h-30.92v85.04h-21.73v-85.04h-31.06v-18.3h83.7Z"/>
  </g>
</svg>